<svg width="87" height="25" viewBox="0 0 87 25" fill="none" xmlns="http://www.w3.org/2000/svg">
<g clip-path="url(#clip0)">
<path d="M34.014 12.507C35.8805 13.0103 36.7061 14.3572 36.9021 16.1624C37.0716 17.5789 37.0474 19.0126 36.8304 20.4223C36.499 22.475 35.2841 23.7094 33.3513 24.2914C31.7967 24.7292 30.193 24.9607 28.5801 24.9803C26.3548 25.0723 24.1258 24.95 21.9231 24.6148H21.8844C20.78 24.4404 20.7275 24.387 20.7275 23.2595C20.7275 22.5818 20.7275 21.9014 20.7275 21.2237C20.7275 20.7176 20.8104 20.6276 21.3074 20.6276C23.4003 20.6276 25.4932 20.6276 27.5889 20.6276C28.482 20.6376 29.3737 20.5556 30.2506 20.383C31.3551 20.1524 31.8244 19.6266 31.9984 18.5075C32.1075 17.7527 32.069 16.9835 31.8852 16.244C31.8157 15.8746 31.6392 15.535 31.3784 15.2688C31.1175 15.0027 30.7843 14.8223 30.4218 14.7509C29.7466 14.5906 29.0552 14.5123 28.362 14.5175H22.8398C22.3069 14.5175 22.2158 14.4247 22.213 13.8764C22.213 12.9654 22.213 12.0553 22.213 11.1461C22.213 10.6287 22.3207 10.5247 22.826 10.5247H28.5498C29.1637 10.5148 29.7748 10.4365 30.3721 10.2913C30.784 10.2186 31.1616 10.0119 31.4484 9.7021C31.7351 9.39235 31.9155 8.99627 31.9625 8.57327C32.0954 7.8781 32.1113 7.16498 32.0094 6.4644C31.8383 5.37341 31.3357 4.85041 30.2617 4.63952C29.2589 4.46173 28.2421 4.37983 27.2244 4.39489C25.2502 4.39489 23.276 4.39489 21.3018 4.39489C20.791 4.39489 20.7192 4.32178 20.7192 3.81003C20.7192 3.02272 20.7192 2.2354 20.7192 1.44809C20.7192 0.832299 20.9125 0.60454 21.5144 0.483631C22.8306 0.250944 24.1609 0.110958 25.496 0.0646684C27.3731 -0.0371475 29.2553 0.0202241 31.1231 0.23619C32.1162 0.355003 33.0915 0.595759 34.0278 0.953207C34.7145 1.19011 35.3273 1.60823 35.8036 2.16492C36.2799 2.72161 36.6028 3.39696 36.7392 4.12214C37.0974 5.85294 37.1181 7.63856 36.8 9.37746C36.5239 10.8987 35.6955 11.9672 34.1935 12.4255C34.132 12.4488 34.0721 12.476 34.014 12.507Z" fill="#F29104"/>
<path d="M72.9683 17.813C73.2444 18.0941 73.5205 18.3894 73.7966 18.6706C73.9698 18.8609 74.1798 19.0128 74.4133 19.1167C74.6468 19.2206 74.8989 19.2742 75.1537 19.2742C75.4086 19.2742 75.6606 19.2206 75.8942 19.1167C76.1277 19.0128 76.3376 18.8609 76.5108 18.6706C77.0051 18.1841 77.4855 17.6808 78.0156 17.2112C77.665 19.486 77.4496 21.8198 75.4782 23.3973C74.4096 24.2408 73.1312 24.5951 71.8142 24.8032C69.6614 25.1292 67.4694 25.0702 65.3366 24.6288C62.5009 24.0327 60.8994 22.2388 60.3169 19.4045C59.9653 17.5104 59.7851 15.5875 59.7784 13.6599C59.7015 11.4451 59.8021 9.22767 60.0794 7.02959C60.2254 5.85943 60.5535 4.72043 61.0513 3.65539C61.4134 2.83249 61.9635 2.10967 62.6556 1.54718C63.3477 0.984696 64.1618 0.59884 65.0301 0.421782C67.5778 -0.118247 70.2051 -0.140225 72.7612 0.35711C75.18 0.807003 76.6268 2.37038 77.4275 4.66202C77.6294 5.2799 77.789 5.91126 77.9052 6.55158C77.9339 6.66113 77.9318 6.77671 77.8991 6.8851C77.8664 6.9935 77.8044 7.09033 77.7202 7.16455C76.9342 7.94062 76.1602 8.72793 75.3981 9.52649C75.2131 9.72051 75.122 9.75988 74.9094 9.52649C74.3323 8.90508 73.7304 8.30897 73.1312 7.70724C73.0074 7.58513 72.9194 7.43032 72.8772 7.26016C72.3995 5.41841 71.4635 4.59454 69.6025 4.40052C68.9111 4.32859 68.2126 4.38287 67.5399 4.5608C66.2229 4.90947 65.5188 5.84018 65.193 7.128C64.8679 8.5854 64.7094 10.0762 64.7208 11.5707C64.6849 13.5643 64.6987 15.5607 65.1046 17.5262C65.5216 19.5394 66.5183 20.4308 68.5312 20.5854C69.1793 20.638 69.8315 20.5868 70.464 20.4336C70.9741 20.3238 71.4468 20.0792 71.8346 19.7243C72.2223 19.3694 72.5115 18.9167 72.6729 18.4119C72.7391 18.2207 72.7999 18.0295 72.8661 17.8355C72.8937 17.8411 72.9214 17.8383 72.9683 17.813Z" fill="#F29104"/>
<path d="M68.3129 10.9352C68.311 10.8391 68.3307 10.7438 68.3704 10.6566C68.4101 10.5694 68.4688 10.4925 68.5421 10.4319C69.3014 9.66707 70.0551 8.90225 70.82 8.14305C71.1182 7.84781 71.386 7.86187 71.7173 8.20772C72.7748 9.28184 73.8351 10.3503 74.8788 11.4385C75.0997 11.6691 75.2157 11.6663 75.431 11.4385C77.9455 8.87413 80.4627 6.3088 82.9827 3.74254C83.4604 3.25609 83.6509 3.2589 84.1396 3.74254C84.8271 4.44268 85.5202 5.14845 86.2049 5.84297C86.5749 6.22538 86.5832 6.47282 86.2049 6.8468C82.6873 10.4497 79.165 14.0451 75.6381 17.633C75.2737 18.0013 75.0528 17.9957 74.6911 17.633L68.5807 11.4076C68.4509 11.2726 68.2991 11.1489 68.3129 10.9352Z" fill="#F29104"/>
<path d="M18.3642 24.0102C16.7756 21.4365 15.1861 18.8693 13.5957 16.3086C13.1926 15.6591 13.1926 15.6563 13.8967 15.4651L14.09 15.4117C15.7467 14.8971 17.0112 13.9214 17.4641 12.1556C18.165 9.5258 18.1411 6.75025 17.395 4.1334C16.9063 2.421 15.7715 1.32157 14.1176 0.733899C13.2321 0.438313 12.3172 0.243116 11.3896 0.15185C9.67571 0.0131733 7.95509 -0.0187536 6.23736 0.056248C4.37085 0.08999 2.50709 0.19684 0.648863 0.357114C0 0.413351 0 0.441469 0 1.10787V24.0946C0 24.7976 0.0414167 24.8397 0.715129 24.8397H4.23555C4.87613 24.8397 4.92583 24.7891 4.92583 24.1536C4.92583 21.533 4.92583 18.9096 4.92583 16.2805C4.92583 15.9993 4.97829 15.9037 5.27097 15.9122C5.97506 15.9347 6.68467 15.9347 7.39151 15.9122C7.51397 15.8994 7.63732 15.9252 7.74495 15.986C7.85258 16.0468 7.9393 16.1398 7.99344 16.2524C9.5866 18.8393 11.2019 21.4149 12.8033 23.9962C12.9562 24.2669 13.1799 24.4892 13.4495 24.6381C13.7191 24.787 14.024 24.8568 14.3302 24.8397C15.5175 24.8229 16.7048 24.8397 17.892 24.8397C18.1267 24.8397 18.389 24.8819 18.5409 24.6288C18.6928 24.3758 18.4774 24.1818 18.3642 24.0102ZM12.7812 10.0607C12.5769 11.0421 12.0191 11.6438 11.0445 11.8097C10.7822 11.8575 10.5226 11.9222 10.2576 11.9559C9.28955 12.051 8.31674 12.0858 7.34457 12.06C6.65153 12.06 5.96401 12.06 5.26821 12.06C5.02523 12.06 4.92031 12.0262 4.92307 11.7366C4.93688 9.38872 4.92307 7.04084 4.92307 4.70702C4.92307 4.51863 4.92307 4.37803 5.17986 4.38647C6.68467 4.42584 8.18947 4.32461 9.69428 4.46239C9.9704 4.49051 10.2769 4.52144 10.564 4.57767C12.0385 4.85886 12.6459 5.51401 12.8585 7.02959C13.011 8.03655 12.9848 9.0632 12.7812 10.0607V10.0607Z" fill="#009B3A"/>
<path d="M57.4121 15.3385C57.3961 14.6527 57.2474 13.9767 56.9745 13.3495C56.7016 12.7222 56.3098 12.156 55.8217 11.6831C54.5599 10.4853 52.986 10.0607 51.3349 9.87233C49.9227 9.6989 48.4939 9.7235 47.0883 9.94543C47.1822 9.74861 47.2457 9.61364 47.3119 9.48148C48.6999 6.64153 50.0905 3.80158 51.484 0.961632C51.7601 0.382394 51.68 0.236179 51.056 0.236179C49.75 0.236179 48.4412 0.236179 47.1352 0.236179C46.97 0.221691 46.8045 0.261705 46.6633 0.350312C46.5221 0.438919 46.4126 0.571421 46.3511 0.72825C44.3796 4.70043 42.4008 8.67542 40.4147 12.6532C40.1119 13.2587 39.9112 13.9117 39.821 14.585C39.6464 16.1498 39.6261 17.7286 39.7603 19.2976C39.9094 21.6005 40.9973 23.2623 43.1564 24.1255C44.5735 24.652 46.0661 24.937 47.5742 24.9691C49.4794 25.1032 51.3933 24.9248 53.2428 24.4404C55.6588 23.7572 57.1249 22.2191 57.3845 19.6153C57.5029 18.1926 57.5121 16.7627 57.4121 15.3385V15.3385ZM52.3841 18.7127C52.1273 19.8178 51.4094 20.3745 50.0675 20.5292C49.6399 20.5945 49.2077 20.6236 48.7753 20.6163C48.0096 20.6305 47.245 20.5522 46.4974 20.383C46.0554 20.2964 45.6512 20.0712 45.3412 19.7389C45.0312 19.4066 44.8311 18.9839 44.7689 18.53C44.6154 17.7022 44.6154 16.8524 44.7689 16.0246C44.8243 15.5482 45.0314 15.1033 45.3585 14.758C45.6855 14.4127 46.1147 14.186 46.5802 14.1126C47.8708 13.839 49.201 13.8209 50.4983 14.0591C50.9977 14.1208 51.4615 14.3542 51.813 14.7208C52.1645 15.0875 52.3825 15.5653 52.431 16.0752C52.5883 16.9488 52.5723 17.8455 52.3841 18.7127V18.7127Z" fill="#F29104"/>
</g>
<defs>
<clipPath id="clip0">
<rect width="86.4865" height="25" fill="white"/>
</clipPath>
</defs>
</svg>
