<svg width="117" height="22" viewBox="0 0 117 22" fill="none" xmlns="http://www.w3.org/2000/svg">
<g clip-path="url(#clip0)">
<path d="M3.09761 9.91163C4.84449 9.91163 5.84433 8.89759 5.84433 7.13637C5.84433 5.50096 5.2897 4.41449 2.58448 4.41449H0V9.91163H3.09761Z" fill="#F29104"/>
<path d="M53.3083 6.48067L55.1646 12.5001H51.452L53.3083 6.48067ZM51.3614 0.346893L43.9551 21.6531H48.6336L50.2484 16.419H56.3681L57.983 21.6531H62.6954L55.2702 0.346893H51.3614Z" fill="#009B3A"/>
<path d="M106.613 6.48067L108.469 12.5001H104.757L106.613 6.48067ZM104.666 0.346893L97.2598 21.6531H101.938L103.553 16.419H109.677L111.303 21.6531H116.015L108.575 0.346893H104.666Z" fill="#009B3A"/>
<path d="M91.2152 9.00053C89.3664 8.23809 87.7705 7.56334 87.7705 6.33201C87.7705 5.18836 88.8646 4.33062 90.3738 4.33062C92.698 4.33062 94.5241 5.98129 94.5467 5.99654L94.9655 6.37776L96.9765 2.56559L96.7577 2.33305C96.6671 2.23775 94.5279 0.00762939 90.404 0.00762939C86.2802 0.00762939 83.1863 2.74476 83.1863 6.37776C83.1863 10.2242 86.5065 11.6729 89.1778 12.8318C91.0643 13.6628 92.7244 14.3795 92.7244 15.668C92.7244 17.1624 91.3812 17.6961 90.2304 17.6961C87.5894 17.6961 85.5218 15.6833 85.4992 15.6642L85.1219 15.3058L82.6279 18.794L82.8656 19.0608C83.8284 20.0181 84.9709 20.7713 86.226 21.2761C87.481 21.7808 88.8233 22.027 90.1739 22C94.3543 22 97.2746 19.3582 97.2746 15.5727C97.2746 11.5356 93.9166 10.1289 91.2152 9.00053" fill="#009B3A"/>
<path d="M76.5535 0.346893V13.3426L68.5246 0.346893H63.9556V21.6531H68.5095V8.44012L75.5499 19.7966L75.7914 20.1778C76.2102 20.7191 77.2138 21.6455 79.187 21.6493H81.0735V0.346893H76.5535Z" fill="#009B3A"/>
<path d="M34.0096 9.91162H30.912V4.42591H33.4965C36.2017 4.42591 36.7563 5.51238 36.7563 7.14398C36.7563 8.90902 35.7565 9.92305 34.0096 9.92305V9.91162ZM39.7672 21.6531H43.0949L38.5674 13.3692C38.4127 13.091 38.2731 12.8737 38.1599 12.7059C40.1181 11.6728 41.3556 9.4694 41.3556 6.94575C41.3556 4.17049 40.0426 2.02043 37.7939 0.960652C37.0673 0.645285 36.2954 0.449653 35.5075 0.381203C35.3868 0.35833 34.7114 0.346893 34.7114 0.346893H26.3618V21.6531H30.912V14.0288H33.9568C33.9568 14.0288 36.0244 17.9591 36.6281 19.0989C37.0544 19.9033 38.2127 21.6493 39.7521 21.6493" fill="#009B3A"/>
<path d="M4.7124 0.346893V0.381203C5.4645 0.459862 6.20008 0.655311 6.89318 0.960652C9.15696 2.02043 10.4549 4.17049 10.4549 6.94575C10.4549 9.47322 9.21733 11.6728 7.25538 12.7059C7.40357 12.9198 7.54084 13.1412 7.66664 13.3692L12.1942 21.6531H18.4196C18.7699 21.6531 19.1168 21.5834 19.4404 21.4479C19.764 21.3125 20.0581 21.1139 20.3058 20.8637C20.5535 20.6134 20.75 20.3163 20.884 19.9893C21.0181 19.6623 21.0871 19.3118 21.0871 18.9579V0.346893H4.7124Z" fill="#009B3A"/>
<path d="M8.57219 21.6264C7.17619 21.432 6.1273 19.8576 5.73114 19.1028C5.12746 17.9591 3.05988 14.0326 3.05988 14.0326H0V21.6569H8.57219V21.6264Z" fill="#009B3A"/>
</g>
<defs>
<clipPath id="clip0">
<rect width="116.004" height="22" fill="white"/>
</clipPath>
</defs>
</svg>
